<svg width="121" height="55" viewBox="0 0 121 55" fill="none" xmlns="http://www.w3.org/2000/svg">
<path d="M0.35004 52.4372C0.122008 52.737 -0.0114406 53.1081 0.000865817 53.4904C0.0129946 53.8725 0.166956 54.2316 0.433807 54.4934C0.700658 54.7553 1.06256 54.9025 1.44483 54.9074C1.82728 54.9125 2.19584 54.7721 2.49127 54.5384C2.49127 54.5384 2.49127 54.5384 2.49127 54.5384C4.57665 52.8888 6.65914 51.2745 8.76978 49.7138C16.4067 44.1078 26.2953 37.5982 32.2201 39.8524C32.9659 40.1431 33.6924 40.3528 34.4986 40.4983C40.3084 41.4645 44.7449 38.2776 47.7678 35.6688C50.895 32.8926 53.3184 29.8848 55.6408 26.88C60.1859 21.0703 64.3816 14.0961 68.7969 10.8348C71.0277 9.40898 73.4817 7.80216 75.1903 7.14121C75.5791 6.98865 75.8261 6.98257 75.697 6.96754C75.6415 6.95747 75.5221 6.91491 75.4753 6.88073C75.4249 6.84692 75.4514 6.84425 75.5337 6.91234C75.9163 7.20789 76.6923 8.34465 77.3693 9.44273C80.9921 14.6536 82.8843 22.1219 91.6423 25.8003C94.5765 26.7439 97.7956 26.011 99.7388 25.5818C101.791 25.188 102.491 25.3051 103.951 26.5204C107.516 30.0177 110.719 35.1724 113.817 39.893C115.269 42.1326 116.597 44.3257 118.168 46.674C118.396 46.9903 118.735 47.2144 119.12 47.2906C119.505 47.3668 119.903 47.29 120.229 47.0757C120.554 46.8615 120.782 46.5261 120.864 46.1422C120.946 45.7583 120.874 45.3582 120.673 45.0239C120.673 45.0239 120.673 45.0239 120.673 45.0239C119.476 42.8564 118.22 40.3731 116.956 38.0422C114.102 32.9328 111.664 27.9058 107.336 22.9969C105.588 20.8137 101.329 19.7038 98.8852 20.3266C96.3529 20.7279 94.8633 20.9006 93.3655 20.3371C89.3055 18.6916 86.4281 11.8716 83.1455 6.01539C82.3988 4.76746 81.8304 3.50155 80.2279 1.87656C79.4432 1.08694 77.9675 0.187535 76.4508 0.0445709C74.962 -0.11661 73.8345 0.191645 72.9364 0.471259C69.4994 1.71448 67.3779 3.20603 64.9287 4.62335C57.3669 10.1023 54.1561 16.4752 49.4656 22.067C45.2735 27.4867 39.4422 33.5182 35.9069 32.6233C35.6404 32.575 35.3915 32.5068 35.1095 32.401C20.4074 28.9902 12.6259 39.2635 5.53863 46.1642C3.70381 48.1951 1.9884 50.2914 0.35004 52.4372Z" fill="#1C2A60" fill-opacity="0.13"/>
<path d="M1.35004 52.4372C1.13721 52.7415 1.01064 53.1094 1.02548 53.4868C1.04012 53.864 1.19167 54.2165 1.45345 54.4734C1.71523 54.7303 2.07059 54.8752 2.44799 54.8827C2.82561 54.8904 3.19106 54.7569 3.49127 54.5384C3.49127 54.5384 3.49127 54.5384 3.49127 54.5384C5.1169 53.3573 6.75452 52.1625 8.37026 51.0092C14.8152 46.466 21.4227 41.7533 27.7509 39.8896C29.844 39.3067 31.748 39.2656 33.226 39.8374C38.8126 42.1059 44.514 39.1544 47.6537 36.4754C51.0491 33.6684 53.5748 30.5203 55.9696 27.3985C60.6848 21.3256 64.7819 14.0688 69.5084 10.3716C71.6448 8.95837 73.9491 7.33366 75.7102 6.5C76.1182 6.30364 76.4248 6.26922 76.2825 6.24656C76.221 6.23095 76.0957 6.1681 76.087 6.14278C76.0724 6.11668 76.1559 6.15734 76.2738 6.26881C76.7971 6.76141 77.5469 7.93853 78.2521 9.01578C80.8622 12.9968 83.1295 17.6571 87.0057 21.546C88.5812 23.0541 90.7503 24.6661 93.5039 24.5687C93.8909 24.5472 94.262 24.3865 94.5357 24.1073C94.8093 23.8281 94.9631 23.4556 94.9631 23.0687C94.9631 22.6818 94.8093 22.3093 94.5357 22.0302C94.262 21.7509 93.8909 21.5902 93.5039 21.5687C92.136 21.4728 90.8023 20.4151 89.6557 19.0441C86.8093 15.5589 85.0039 10.9771 82.5892 6.44234C81.9309 5.27079 81.4488 4.13226 80.236 2.64862C79.6575 1.94228 78.4101 0.923872 76.9077 0.760104C75.4546 0.595544 74.4725 0.941353 73.6601 1.21127C70.6021 2.40889 68.548 3.78237 66.2172 5.08653C58.5565 10.491 55.0779 17.1198 50.1503 22.8064C45.7325 28.3658 39.4615 34.3057 36.1037 32.416C32.4984 30.994 28.7088 31.3179 25.6248 32.1773C16.4139 35.0416 10.4066 41.2264 5.08162 47.5128C3.7755 49.1071 2.5212 50.7674 1.35004 52.4372Z" fill="#1C2A60"/>
</svg>
