<svg width="393" height="522" viewBox="0 0 393 522" fill="none" xmlns="http://www.w3.org/2000/svg">
<path d="M0 148C35 132 70 110 100 90L128 70L158 48L172 60L186 70L204 84C228 108 250 128 282 125C320 121 352 110 393 132V522H0V148Z" fill="#F4F6FC"/>
<path d="M293 300C250 304 205 306 190 282C176 258 200 240 215 222C225 190 225 165 200 148C175 132 135 125 125 100C115 75 140 60 158 50" stroke="#C9CFDC" stroke-width="3" stroke-linecap="round" stroke-dasharray="6 7"/>
<mask id="mask0_2051_90" style="mask-type:luminance" maskUnits="userSpaceOnUse" x="117" y="45" width="177" height="263">
<path d="M293 300C250 304 205 306 190 282C176 258 200 240 215 222C225 190 225 165 200 148C175 132 135 125 125 100C115 75 140 60 158 50" pathLength="1" stroke="white" stroke-width="10" stroke-dasharray="1 1"/>
</mask>
<g mask="url(#mask0_2051_90)">
<path d="M293 300C250 304 205 306 190 282C176 258 200 240 215 222C225 190 225 165 200 148C175 132 135 125 125 100C115 75 140 60 158 50" stroke="#2F5BEA" stroke-width="3" stroke-linecap="round" stroke-dasharray="6 7"/>
</g>
<path d="M293 308C297.418 308 301 304.418 301 300C301 295.582 297.418 292 293 292C288.582 292 285 295.582 285 300C285 304.418 288.582 308 293 308Z" fill="#2F5BEA"/>
<path d="M158 48V2" stroke="#1F2A5C" stroke-width="4" stroke-linecap="round"/>
<path d="M160 1.99986C170 -0.000144958 180 5.99986 190 1.99986C183 8.99986 183 14.9999 188 19.9999C178 21.9999 170 16.9999 160 19.9999V1.99986Z" fill="#1F2A5C"/>
</svg>
